<svg width="91" height="92" viewBox="0 0 91 92" fill="none" xmlns="http://www.w3.org/2000/svg">
<rect x="0.612372" y="20.3536" width="73" height="73" rx="19.5" transform="rotate(-15 0.612372 20.3536)" stroke="url(#paint0_linear_1169_134)"/>
<circle cx="7" cy="27.0005" r="7" fill="url(#paint1_linear_1169_134)"/>
<g clip-path="url(#clip0_1169_134)">
<path d="M45 38C40.5867 38 37 41.5867 37 46C37 50.4133 40.5867 54 45 54C49.4133 54 53 50.4133 53 46C53 45.28 52.8933 44.6 52.72 43.9333L54.8133 41.84C55.36 43.12 55.6667 44.52 55.6667 46C55.6667 51.88 50.88 56.6667 45 56.6667C39.12 56.6667 34.3333 51.88 34.3333 46C34.3333 40.12 39.12 35.3333 45 35.3333C46.48 35.3333 47.88 35.64 49.16 36.1867L47.0667 38.28C46.4133 38.1067 45.72 38 45 38ZM57.8 42.3067C58.1467 43.48 58.3333 44.72 58.3333 46C58.3333 53.3467 52.3467 59.3333 45 59.3333C37.6533 59.3333 31.6667 53.3467 31.6667 46C31.6667 38.6533 37.6533 32.6667 45 32.6667C46.28 32.6667 47.52 32.8533 48.6933 33.2L50.7867 31.1067C48.9867 30.4 47.04 30 45 30C36.1733 30 29 37.1733 29 46C29 54.8267 36.1733 62 45 62C53.8267 62 61 54.8267 61 46C61 43.96 60.6 42 59.8933 40.2133L57.8 42.3067ZM44.64 40.7067C41.8667 40.8933 39.6667 43.1867 39.6667 46C39.6667 48.8133 42.0533 51.3333 45 51.3333C47.9467 51.3333 50.1067 49.1333 50.2933 46.36L48.7733 47.88C47.2133 49.44 44.68 49.44 43.12 47.88C41.56 46.32 41.56 43.7867 43.12 42.2267L44.64 40.7067ZM44.0533 45.0667L45.9333 46.9467L53.5467 39.3333H57L61 35.3333H55.6667V30L51.6667 34V37.4533L44.0533 45.0667Z" fill="url(#paint2_linear_1169_134)"/>
</g>
<defs>
<linearGradient id="paint0_linear_1169_134" x1="28.12" y1="20" x2="70.6403" y2="48.4951" gradientUnits="userSpaceOnUse">
<stop stop-color="#FF5F6D"/>
<stop offset="1" stop-color="#FFC371"/>
</linearGradient>
<linearGradient id="paint1_linear_1169_134" x1="5.32" y1="20.0005" x2="13.3644" y2="25.3915" gradientUnits="userSpaceOnUse">
<stop stop-color="#FF5F6D"/>
<stop offset="1" stop-color="#FFC371"/>
</linearGradient>
<linearGradient id="paint2_linear_1169_134" x1="41.16" y1="30" x2="59.5471" y2="42.3222" gradientUnits="userSpaceOnUse">
<stop stop-color="#FF5F6D"/>
<stop offset="1" stop-color="#FFC371"/>
</linearGradient>
<clipPath id="clip0_1169_134">
<rect width="32" height="32" fill="white" transform="translate(29 30)"/>
</clipPath>
</defs>
</svg>
