<svg width="91" height="92" viewBox="0 0 91 92" fill="none" xmlns="http://www.w3.org/2000/svg">
<rect x="0.612372" y="20.3536" width="73" height="73" rx="19.5" transform="rotate(-15 0.612372 20.3536)" stroke="url(#paint0_linear_1169_179)"/>
<circle cx="7" cy="27.0005" r="7" fill="url(#paint1_linear_1169_179)"/>
<g clip-path="url(#clip0_1169_179)">
<path d="M60.4774 52.6839L56.744 39.2172C55.9938 36.5083 54.3587 34.1283 52.0991 32.4563C49.8395 30.7843 47.0854 29.9166 44.2755 29.9913C41.4656 30.066 38.7615 31.0788 36.5939 32.8684C34.4263 34.6581 32.9199 37.1216 32.3147 39.8666L29.428 52.8532C29.3198 53.3405 29.3224 53.8459 29.4357 54.3321C29.5489 54.8182 29.7699 55.2727 30.0823 55.6621C30.3947 56.0514 30.7905 56.3656 31.2406 56.5814C31.6907 56.7973 32.1835 56.9093 32.6827 56.9092H38.2067C38.631 58.3766 39.5206 59.6663 40.7415 60.5842C41.9625 61.5021 43.4486 61.9984 44.976 61.9984C46.5035 61.9984 47.9896 61.5021 49.2105 60.5842C50.4315 59.6663 51.3211 58.3766 51.7454 56.9092H57.2667C57.7806 56.9093 58.2875 56.7905 58.7479 56.5622C59.2082 56.3339 59.6096 56.0022 59.9206 55.5931C60.2316 55.184 60.4438 54.7086 60.5406 54.2039C60.6374 53.6992 60.6149 53.179 60.4774 52.6839ZM33.5134 52.9092L36.22 40.7266C36.6346 38.8546 37.6634 37.1752 39.1428 35.9556C40.6221 34.736 42.4669 34.0463 44.3835 33.9963C46.3001 33.9463 48.1784 34.5389 49.7193 35.6798C51.2602 36.8206 52.3751 38.4441 52.8867 40.2919L56.3907 52.9092H33.5134Z" fill="url(#paint2_linear_1169_179)"/>
</g>
<defs>
<linearGradient id="paint0_linear_1169_179" x1="28.12" y1="20" x2="70.6403" y2="48.4951" gradientUnits="userSpaceOnUse">
<stop stop-color="#392D69"/>
<stop offset="1" stop-color="#B57BEE"/>
</linearGradient>
<linearGradient id="paint1_linear_1169_179" x1="5.32" y1="20.0005" x2="13.3644" y2="25.3915" gradientUnits="userSpaceOnUse">
<stop stop-color="#392D69"/>
<stop offset="1" stop-color="#B57BEE"/>
</linearGradient>
<linearGradient id="paint2_linear_1169_179" x1="41.2243" y1="29.9868" x2="59.4464" y2="41.9084" gradientUnits="userSpaceOnUse">
<stop stop-color="#392D69"/>
<stop offset="1" stop-color="#B57BEE"/>
</linearGradient>
<clipPath id="clip0_1169_179">
<rect width="32" height="32" fill="white" transform="translate(29 30)"/>
</clipPath>
</defs>
</svg>
