<svg width="245" height="304" viewBox="0 0 245 304" fill="none" xmlns="http://www.w3.org/2000/svg">
<path d="M217.463 149.15L242.92 30.7344C245.698 17.8116 227.112 12.4061 222.526 24.8032L213.572 49.0086C210.027 58.592 195.674 54.6768 197.486 44.6206V44.6206C199.321 34.4387 184.678 30.6387 181.33 40.428L91.4131 303.356L122.566 164.606C125.348 152.218 107.608 146.772 102.96 158.587V158.587C98.3447 170.317 80.7377 165.05 83.3219 152.713L89.1738 124.775C91.4187 114.057 76.6002 108.849 71.6458 118.614L68.4135 124.985C64.9286 131.854 54.5919 129.624 54.2475 121.93V121.93C53.8984 114.128 43.3393 111.998 39.9933 119.055L28.7966 142.667C21.4093 158.246 -2.12431 149.278 2.72918 132.734L41.3709 1.01399" stroke="url(#paint0_linear_1169_77)" stroke-width="3"/>
<defs>
<linearGradient id="paint0_linear_1169_77" x1="75.4919" y1="340.174" x2="-66.6148" y2="248.196" gradientUnits="userSpaceOnUse">
<stop stop-color="#FF5F6D"/>
<stop offset="1" stop-color="#FFC371"/>
</linearGradient>
</defs>
</svg>
