<svg width="81" height="32" viewBox="0 0 81 32" fill="none" xmlns="http://www.w3.org/2000/svg">
<path d="M31.616 25.288C30.336 25.288 29.32 24.936 28.568 24.232C27.816 23.528 27.44 22.392 27.44 20.824V12.376H30.776V20.272C30.776 20.688 30.824 21.04 30.92 21.328C31.016 21.6 31.152 21.824 31.328 22C31.52 22.176 31.752 22.304 32.024 22.384C32.296 22.464 32.6 22.504 32.936 22.504C33.432 22.504 33.88 22.384 34.28 22.144C34.68 21.904 34.992 21.576 35.216 21.16C35.44 20.728 35.552 20.248 35.552 19.72V12.376H38.888V25H36.152L35.912 23.272H35.744C35.44 23.672 35.08 24.024 34.664 24.328C34.264 24.632 33.808 24.864 33.296 25.024C32.784 25.2 32.224 25.288 31.616 25.288ZM47.4941 25.288C46.1501 25.288 45.0221 25.056 44.1101 24.592C43.1981 24.112 42.5021 23.384 42.0221 22.408C41.5581 21.416 41.3261 20.176 41.3261 18.688C41.3261 17.168 41.5581 15.928 42.0221 14.968C42.5021 13.992 43.1981 13.264 44.1101 12.784C45.0381 12.304 46.1661 12.064 47.4941 12.064C48.3581 12.064 49.1341 12.168 49.8221 12.376C50.5261 12.584 51.1341 12.904 51.6461 13.336C52.1581 13.768 52.5421 14.304 52.7981 14.944C53.0701 15.568 53.2061 16.312 53.2061 17.176H49.8701C49.8701 16.6 49.7821 16.128 49.6061 15.76C49.4301 15.392 49.1581 15.112 48.7901 14.92C48.4381 14.728 47.9901 14.632 47.4461 14.632C46.8061 14.632 46.2861 14.776 45.8861 15.064C45.4861 15.352 45.1901 15.776 44.9981 16.336C44.8061 16.896 44.7101 17.592 44.7101 18.424V18.976C44.7101 19.792 44.8061 20.48 44.9981 21.04C45.2061 21.6 45.5181 22.024 45.9341 22.312C46.3501 22.584 46.8941 22.72 47.5661 22.72C48.1101 22.72 48.5581 22.624 48.9101 22.432C49.2781 22.24 49.5581 21.952 49.7501 21.568C49.9421 21.184 50.0381 20.72 50.0381 20.176H53.2061C53.2061 20.992 53.0701 21.72 52.7981 22.36C52.5421 23 52.1581 23.536 51.6461 23.968C51.1501 24.4 50.5501 24.728 49.8461 24.952C49.1421 25.176 48.3581 25.288 47.4941 25.288ZM59.0439 25.288C58.6279 25.288 58.1799 25.24 57.6999 25.144C57.2359 25.048 56.7959 24.88 56.3799 24.64C55.9639 24.384 55.6199 24.024 55.3479 23.56C55.0919 23.08 54.9639 22.472 54.9639 21.736C54.9639 20.856 55.1559 20.128 55.5399 19.552C55.9239 18.976 56.4679 18.528 57.1719 18.208C57.8919 17.872 58.7479 17.64 59.7399 17.512C60.7319 17.384 61.8279 17.32 63.0279 17.32V16.384C63.0279 16.016 62.9639 15.696 62.8359 15.424C62.7239 15.152 62.5159 14.936 62.2119 14.776C61.9239 14.616 61.5159 14.536 60.9879 14.536C60.4599 14.536 60.0279 14.6 59.6919 14.728C59.3719 14.856 59.1399 15.024 58.9959 15.232C58.8679 15.424 58.8039 15.64 58.8039 15.88V16.168H55.5639C55.5479 16.088 55.5399 16.016 55.5399 15.952C55.5399 15.872 55.5399 15.776 55.5399 15.664C55.5399 14.928 55.7639 14.296 56.2119 13.768C56.6599 13.224 57.2919 12.808 58.1079 12.52C58.9239 12.232 59.8759 12.088 60.9639 12.088C62.1319 12.088 63.1079 12.24 63.8919 12.544C64.6919 12.848 65.2999 13.296 65.7159 13.888C66.1479 14.48 66.3639 15.224 66.3639 16.12V21.856C66.3639 22.144 66.4439 22.36 66.6039 22.504C66.7799 22.632 66.9719 22.696 67.1799 22.696H67.9719V24.88C67.8119 24.96 67.5639 25.04 67.2279 25.12C66.8919 25.216 66.4839 25.264 66.0039 25.264C65.5399 25.264 65.1239 25.192 64.7559 25.048C64.4039 24.92 64.1079 24.736 63.8679 24.496C63.6279 24.24 63.4599 23.936 63.3639 23.584H63.1959C62.9239 23.92 62.5879 24.216 62.1879 24.472C61.8039 24.728 61.3479 24.928 60.8199 25.072C60.3079 25.216 59.7159 25.288 59.0439 25.288ZM60.1719 22.768C60.6199 22.768 61.0199 22.704 61.3719 22.576C61.7239 22.432 62.0199 22.248 62.2599 22.024C62.4999 21.784 62.6839 21.496 62.8119 21.16C62.9559 20.824 63.0279 20.464 63.0279 20.08V19.384C62.1319 19.384 61.3319 19.448 60.6279 19.576C59.9239 19.688 59.3639 19.888 58.9479 20.176C58.5479 20.464 58.3479 20.864 58.3479 21.376C58.3479 21.664 58.4199 21.912 58.5639 22.12C58.7079 22.328 58.9159 22.488 59.1879 22.6C59.4599 22.712 59.7879 22.768 60.1719 22.768ZM68.6458 25V23.584L74.8138 14.944H69.0298V12.376H79.6378V13.744L73.4458 22.408H79.8778V25H68.6458Z" fill="#191919"/>
<path d="M0.840378 6.91458V16.4824L7.03133 9.16584L5.18209 6.91458H0.840378Z" fill="#191919"/>
<path d="M12.0162 15.196L8.63934 19.0553L17.2424 29.5075H21.5841V6.91458H16.3579V20.5829L12.0162 15.196Z" fill="url(#paint0_linear_1109_15)"/>
<path d="M4.29765 14.392C-4.4195 22.2176 2.20719 29.8023 5.98609 32C1.03332 26.3397 5.20887 20.1005 7.91574 17.6884C17.1137 9.06935 13.0347 2.30486 9.84538 0C11.1318 3.53769 11.373 8.0402 4.29765 14.392Z" fill="url(#paint1_linear_1109_15)"/>
<defs>
<linearGradient id="paint0_linear_1109_15" x1="13.5583" y1="6.91458" x2="22.9519" y2="10.5214" gradientUnits="userSpaceOnUse">
<stop stop-color="#FF5F6D"/>
<stop offset="1" stop-color="#FFC371"/>
</linearGradient>
<linearGradient id="paint1_linear_1109_15" x1="5.15268" y1="-1.4794e-06" x2="15.6007" y2="2.96692" gradientUnits="userSpaceOnUse">
<stop stop-color="#FF5F6D"/>
<stop offset="1" stop-color="#FFC371"/>
</linearGradient>
</defs>
</svg>
