<svg width="91" height="92" viewBox="0 0 91 92" fill="none" xmlns="http://www.w3.org/2000/svg">
<rect x="0.612372" y="20.3536" width="73" height="73" rx="19.5" transform="rotate(-15 0.612372 20.3536)" stroke="url(#paint0_linear_1169_167)"/>
<circle cx="7" cy="27.0005" r="7" fill="url(#paint1_linear_1169_167)"/>
<g clip-path="url(#clip0_1169_167)">
<path d="M58.98 44.6334L45 53.0227L31.02 44.6334C30.7167 44.4514 30.3536 44.3974 30.0106 44.4832C29.6675 44.5689 29.3726 44.7875 29.1906 45.0907C29.0087 45.3939 28.9547 45.757 29.0404 46.1001C29.1262 46.4432 29.3447 46.7381 29.648 46.92L44.3146 55.72C44.522 55.8446 44.7594 55.9105 45.0013 55.9105C45.2432 55.9105 45.4806 55.8446 45.688 55.72L60.3546 46.92C60.6579 46.7381 60.8764 46.4432 60.9622 46.1001C61.0479 45.757 60.9939 45.3939 60.812 45.0907C60.63 44.7875 60.3351 44.5689 59.992 44.4832C59.6489 44.3974 59.2859 44.4514 58.9826 44.6334H58.98Z" fill="url(#paint2_linear_1169_167)"/>
<path d="M58.98 50.7242L45 59.1122L31.02 50.7242C30.8698 50.6341 30.7034 50.5745 30.5302 50.5487C30.357 50.5229 30.1804 50.5315 30.0106 50.574C29.8407 50.6165 29.6809 50.692 29.5402 50.7962C29.3995 50.9005 29.2807 51.0314 29.1906 51.1815C29.1005 51.3317 29.0409 51.4981 29.0151 51.6713C28.9894 51.8445 28.998 52.021 29.0404 52.1909C29.1262 52.534 29.3447 52.8289 29.648 53.0109L44.3146 61.8109C44.522 61.9355 44.7594 62.0013 45.0013 62.0013C45.2432 62.0013 45.4806 61.9355 45.688 61.8109L60.3546 53.0109C60.6579 52.8289 60.8764 52.534 60.9622 52.1909C61.0479 51.8478 60.9939 51.4848 60.812 51.1815C60.63 50.8783 60.3351 50.6598 59.992 50.574C59.6489 50.4882 59.2859 50.5423 58.9826 50.7242H58.98Z" fill="url(#paint3_linear_1169_167)"/>
<path d="M44.9999 49.6972C44.2807 49.6968 43.5751 49.501 42.9586 49.1306L29.6466 41.1426C29.4495 41.024 29.2864 40.8565 29.1731 40.6563C29.0599 40.4561 29.0004 40.2299 29.0004 39.9999C29.0004 39.7699 29.0599 39.5438 29.1731 39.3435C29.2864 39.1433 29.4495 38.9758 29.6466 38.8572L42.9586 30.8692C43.5751 30.4989 44.2808 30.3032 44.9999 30.3032C45.7191 30.3032 46.4248 30.4989 47.0413 30.8692L60.3533 38.8572C60.5504 38.9758 60.7135 39.1433 60.8268 39.3435C60.94 39.5438 60.9995 39.7699 60.9995 39.9999C60.9995 40.2299 60.94 40.4561 60.8268 40.6563C60.7135 40.8565 60.5504 41.024 60.3533 41.1426L47.0413 49.1306C46.4248 49.501 45.7192 49.6968 44.9999 49.6972ZM32.9253 39.9999L44.3333 46.8439C44.5348 46.9644 44.7652 47.0281 44.9999 47.0281C45.2347 47.0281 45.4651 46.9644 45.6666 46.8439L57.0746 39.9999L45.6666 33.1559C45.4651 33.0354 45.2347 32.9717 44.9999 32.9717C44.7652 32.9717 44.5348 33.0354 44.3333 33.1559L32.9253 39.9999Z" fill="url(#paint4_linear_1169_167)"/>
</g>
<defs>
<linearGradient id="paint0_linear_1169_167" x1="29.045" y1="20" x2="71.4693" y2="51.3221" gradientUnits="userSpaceOnUse">
<stop stop-color="#08B359"/>
<stop offset="1" stop-color="#F3E51A"/>
</linearGradient>
<linearGradient id="paint1_linear_1169_167" x1="5.495" y1="20.0005" x2="13.5212" y2="25.9263" gradientUnits="userSpaceOnUse">
<stop stop-color="#08B359"/>
<stop offset="1" stop-color="#F3E51A"/>
</linearGradient>
<linearGradient id="paint2_linear_1169_167" x1="41.5611" y1="44.4434" x2="46.9655" y2="55.5784" gradientUnits="userSpaceOnUse">
<stop stop-color="#08B359"/>
<stop offset="1" stop-color="#F3E51A"/>
</linearGradient>
<linearGradient id="paint3_linear_1169_167" x1="41.5611" y1="50.5342" x2="46.9655" y2="61.6692" gradientUnits="userSpaceOnUse">
<stop stop-color="#08B359"/>
<stop offset="1" stop-color="#F3E51A"/>
</linearGradient>
<linearGradient id="paint4_linear_1169_167" x1="41.56" y1="30.3032" x2="52.9714" y2="44.2042" gradientUnits="userSpaceOnUse">
<stop stop-color="#08B359"/>
<stop offset="1" stop-color="#F3E51A"/>
</linearGradient>
<clipPath id="clip0_1169_167">
<rect width="32" height="32" fill="white" transform="translate(29 30)"/>
</clipPath>
</defs>
</svg>
