<svg width="91" height="92" viewBox="0 0 91 92" fill="none" xmlns="http://www.w3.org/2000/svg">
<rect x="0.612372" y="20.3536" width="73" height="73" rx="19.5" transform="rotate(-15 0.612372 20.3536)" stroke="url(#paint0_linear_1169_190)"/>
<circle cx="7" cy="27.0005" r="6.5" fill="url(#paint1_linear_1169_190)" stroke="url(#paint2_linear_1169_190)"/>
<g clip-path="url(#clip0_1169_190)">
<path d="M53 41.3332C53 42.2173 52.6488 43.0651 52.0237 43.6902C51.3986 44.3154 50.5507 44.6665 49.6667 44.6665C48.7826 44.6665 47.9348 44.3154 47.3096 43.6902C46.6845 43.0651 46.3333 42.2173 46.3333 41.3332C46.3333 40.4492 46.6845 39.6013 47.3096 38.9762C47.9348 38.3511 48.7826 37.9999 49.6667 37.9999C50.5507 37.9999 51.3986 38.3511 52.0237 38.9762C52.6488 39.6013 53 40.4492 53 41.3332ZM52.992 50.4879C52.9188 52.6064 52.3899 54.6842 51.4413 56.5799C50.5674 58.2326 49.2551 59.6128 47.6484 60.5689C46.0418 61.525 44.2028 62.0201 42.3333 61.9999H41V54.6665C40.994 53.4307 40.5005 52.2472 39.6266 51.3733C38.7527 50.4994 37.5692 50.0058 36.3333 49.9999H29V48.6665C28.9798 46.797 29.4749 44.9581 30.431 43.3514C31.3871 41.7448 32.7672 40.4325 34.42 39.5585C36.3157 38.61 38.3935 38.0811 40.512 38.0079C42.4545 35.4989 44.949 33.4713 47.802 32.0824C50.655 30.6936 53.7897 29.981 56.9627 29.9999C57.4907 29.9965 58.0141 30.0975 58.503 30.2968C58.9919 30.4962 59.4366 30.7901 59.8117 31.1617C60.1868 31.5333 60.4848 31.9753 60.6888 32.4624C60.8927 32.9494 60.9984 33.4719 61 33.9999C61.0226 37.1788 60.3118 40.3202 58.923 43.1798C57.5341 46.0394 55.5045 48.5402 52.992 50.4879ZM31.7787 47.3332H34.7947C35.7849 45.1279 36.948 43.0043 38.2733 40.9825C37.3528 41.1967 36.4609 41.5189 35.616 41.9425C34.5999 42.4791 33.7236 43.2461 33.0572 44.1822C32.3909 45.1183 31.953 46.1975 31.7787 47.3332ZM50.0173 52.7265C47.9955 54.0518 45.872 55.215 43.6667 56.2052V59.2212C44.8024 59.0469 45.8816 58.609 46.8176 57.9426C47.7537 57.2763 48.5208 56.4 49.0573 55.3839C49.4809 54.539 49.8032 53.6471 50.0173 52.7265ZM58.3333 33.9625C58.3236 33.6154 58.1789 33.2858 57.9299 33.0438C57.6809 32.8017 57.3473 32.6664 57 32.6665C50.12 32.8625 45.4667 35.4985 40.976 41.7625C39.7229 43.5668 38.6209 45.4715 37.6813 47.4572C39.1372 47.7284 40.4769 48.434 41.5241 49.4811C42.5713 50.5283 43.2769 51.868 43.548 53.3239C45.5337 52.3843 47.4384 51.2824 49.2427 50.0292C55.5013 45.5332 58.1373 40.8799 58.3333 33.9625ZM37.1627 53.8385C37.9077 54.5912 38.3256 55.6075 38.3256 56.6665C38.3256 57.7256 37.9077 58.7419 37.1627 59.4945C35.9533 60.7025 32.3333 61.4479 30.832 61.7132L28.9573 62.0425L29.2867 60.1679C29.5533 58.6665 30.2973 55.0465 31.5053 53.8372C32.2677 53.1101 33.2808 52.7045 34.3343 52.7048C35.3878 52.705 36.4007 53.1111 37.1627 53.8385ZM35.6667 56.6665C35.6671 56.4914 35.6329 56.3179 35.5658 56.1561C35.4987 55.9942 35.4002 55.8473 35.276 55.7239C35.026 55.4739 34.6869 55.3335 34.3333 55.3335C33.9798 55.3335 33.6407 55.4739 33.3907 55.7239C32.8823 56.6415 32.5253 57.6352 32.3333 58.6665C33.3651 58.4738 34.3591 58.1163 35.2773 57.6079C35.4012 57.4844 35.4993 57.3377 35.5662 57.1762C35.633 57.0146 35.6671 56.8414 35.6667 56.6665Z" fill="url(#paint3_linear_1169_190)"/>
</g>
<defs>
<linearGradient id="paint0_linear_1169_190" x1="28.12" y1="20" x2="70.608" y2="49.8513" gradientUnits="userSpaceOnUse">
<stop stop-color="#7E8FFF"/>
<stop offset="1" stop-color="#92EFFD"/>
</linearGradient>
<linearGradient id="paint1_linear_1169_190" x1="5.32" y1="20.0005" x2="13.3583" y2="25.648" gradientUnits="userSpaceOnUse">
<stop stop-color="#7E8FFF"/>
<stop offset="1" stop-color="#92EFFD"/>
</linearGradient>
<linearGradient id="paint2_linear_1169_190" x1="5.32" y1="20.0005" x2="13.3583" y2="25.648" gradientUnits="userSpaceOnUse">
<stop stop-color="#7E8FFF"/>
<stop offset="1" stop-color="#92EFFD"/>
</linearGradient>
<linearGradient id="paint3_linear_1169_190" x1="41.1337" y1="29.9995" x2="59.5317" y2="42.9256" gradientUnits="userSpaceOnUse">
<stop stop-color="#7E8FFF"/>
<stop offset="1" stop-color="#92EFFD"/>
</linearGradient>
<clipPath id="clip0_1169_190">
<rect width="32" height="32" fill="white" transform="translate(29 30)"/>
</clipPath>
</defs>
</svg>
